# xmcd CD database file
#
# Track frame offsets:
#	150
#	16276
#	31320
#	45465
#	54863
#	71196
#	89204
#	102900
#	117815
#	135328
#	149060
#	167660
#	190709
#	204740
#	214939
#	229766
#	243723
#	256593
#	270229
#	285487
#
# Disc length: 3977 seconds
#
# Revision: 0
# Processed by: cddbd v1.5.2PL0 Copyright (c) Steve Scherf et al.
# Submitted via: CDex 1.51
#
DISCID=200f8714
DTITLE=Louis Armstrong - Fundamentals Vol. 2
DYEAR=1900
DGENRE=Jazz
TTITLE0=Undecided
TTITLE1=New Orleans Stomp
TTITLE2=Memories Of You
TTITLE3=Royal Garden Blues
TTITLE4=That Lucky Old Sun
TTITLE5=Back Ole Town Blues
TTITLE6=Hobo, You Can´t Ride This Train
TTITLE7=Chimes Blues
TTITLE8=Indiana
TTITLE9=Lover - With Jack Teagarden
TTITLE10=Somedy You´ll Be Sorry
TTITLE11=Stomin´ At The Savoy
TTITLE12=Velma´s Blues With Velma Middleton
TTITLE13=Way Down Yonder In New Orleans
TTITLE14=Blueberry Hill
TTITLE15=Cornet Chop Suey
TTITLE16=That´s My Desire
TTITLE17=Tin Roof Blues
TTITLE18=When It´s Sleepy Time Down South
TTITLE19=Dear Old Southland
EXTD=
EXTT0=
EXTT1=
EXTT2=
EXTT3=
EXTT4=
EXTT5=
EXTT6=
EXTT7=
EXTT8=
EXTT9=
EXTT10=
EXTT11=
EXTT12=
EXTT13=
EXTT14=
EXTT15=
EXTT16=
EXTT17=
EXTT18=
EXTT19=
PLAYORDER=
